<?xml version="1.0" standalone="no"?>
<!DOCTYPE svg PUBLIC "-//W3C//DTD SVG 20010904//EN"
 "http://www.w3.org/TR/2001/REC-SVG-20010904/DTD/svg10.dtd">
<svg version="1.0" xmlns="http://www.w3.org/2000/svg"
 width="64.000000pt" height="64.000000pt" viewBox="0 0 64.000000 64.000000"
 preserveAspectRatio="xMidYMid meet">

<g transform="translate(0.000000,64.000000) scale(0.100000,-0.100000)"
fill="#000000" stroke="none">
<path d="M139 546 c-37 -21 -59 -59 -59 -102 0 -21 -8 -46 -20 -61 -29 -37
-26 -79 9 -114 41 -41 76 -39 91 5 15 45 79 103 124 112 20 3 52 3 72 0 45 -9
109 -67 124 -112 15 -44 41 -45 86 0 46 46 46 86 0 132 -19 19 -44 34 -56 34
-12 0 -33 9 -47 20 -14 11 -34 20 -45 20 -10 0 -29 12 -42 27 -17 19 -37 28
-77 35 -118 18 -134 18 -160 4z"/>
<path d="M246 346 c-71 -43 -93 -115 -56 -191 53 -110 206 -111 259 -2 26 54
26 87 1 136 -13 27 -33 46 -63 60 -56 27 -93 26 -141 -3z m67 -8 c4 -10 7 -10
14 0 12 16 73 -4 73 -24 0 -8 6 -14 14 -14 20 0 40 -61 24 -72 -10 -6 -10 -10
0 -17 20 -12 -9 -74 -44 -98 -37 -24 -111 -24 -148 0 -35 24 -64 86 -44 98 10
7 10 11 0 17 -16 11 4 72 24 72 8 0 14 6 14 14 0 8 12 19 28 24 37 14 40 14
45 0z"/>
<path d="M345 240 c-11 -16 -26 -30 -32 -30 -7 0 -13 -4 -13 -10 0 -5 -9 -10
-20 -10 -11 0 -20 -4 -20 -10 0 -6 27 -10 60 -10 59 0 80 12 39 23 l-21 6 21
29 c22 32 26 42 14 42 -5 0 -17 -14 -28 -30z"/>
<path d="M290 140 c0 -5 14 -10 30 -10 17 0 30 5 30 10 0 6 -13 10 -30 10 -16
0 -30 -4 -30 -10z"/>
</g>
</svg>
