<?xml version="1.0" standalone="no"?>
<!DOCTYPE svg PUBLIC "-//W3C//DTD SVG 20010904//EN"
 "http://www.w3.org/TR/2001/REC-SVG-20010904/DTD/svg10.dtd">
<svg version="1.0" xmlns="http://www.w3.org/2000/svg"
 width="96.000000pt" height="96.000000pt" viewBox="0 0 96.000000 96.000000"
 preserveAspectRatio="xMidYMid meet">

<g transform="translate(0.000000,96.000000) scale(0.100000,-0.100000)"
fill="#000000" stroke="none">
<path d="M508 870 c-81 -85 -162 -195 -189 -253 -11 -24 -16 -26 -50 -21 -28
5 -49 1 -79 -15 -50 -26 -60 -26 -109 0 -22 11 -48 19 -57 17 -24 -4 -29 -27
-7 -34 10 -3 34 -14 54 -25 47 -24 86 -24 124 1 38 25 66 25 107 0 42 -26 81
-25 128 1 37 21 70 21 70 -1 0 -6 -8 -13 -17 -16 -10 -3 -34 -14 -54 -25 -45
-23 -80 -24 -121 -3 -29 15 -32 15 -43 0 -7 -9 -19 -16 -26 -16 -8 0 -31 -9
-52 -20 -46 -25 -57 -25 -106 1 -22 11 -48 19 -57 17 -24 -4 -29 -27 -7 -34
10 -3 34 -14 54 -25 47 -24 86 -24 127 1 18 11 37 20 42 20 4 0 6 -25 3 -55
-6 -53 -5 -55 23 -65 16 -5 41 -17 56 -25 35 -20 51 -19 95 5 47 25 75 25 127
1 23 -11 49 -22 59 -25 22 -7 17 -30 -7 -34 -9 -2 -35 6 -57 17 -49 26 -70 26
-111 1 -38 -23 -83 -25 -118 -5 -33 19 -50 19 -50 0 0 -8 -8 -15 -18 -15 -9 0
-34 -9 -55 -20 -46 -25 -57 -25 -106 1 -22 11 -48 19 -57 17 -24 -4 -29 -27
-7 -34 10 -3 34 -14 54 -25 47 -24 86 -24 127 1 41 25 63 25 104 0 42 -25 78
-25 129 1 40 20 69 20 69 -1 0 -6 -8 -13 -17 -17 -44 -14 -123 -56 -123 -64 0
-5 21 -23 48 -40 276 -175 620 80 538 401 -20 77 -72 182 -134 269 -48 66
-199 231 -212 231 -5 0 -46 -40 -92 -90z m22 -450 c50 -25 72 -25 126 1 41 21
74 21 74 -1 0 -6 -8 -13 -17 -16 -10 -3 -35 -14 -55 -24 -47 -25 -84 -25 -126
0 -18 11 -41 20 -52 20 -11 0 -34 -9 -52 -20 -44 -26 -78 -26 -78 0 0 14 7 20
23 20 12 1 38 9 57 20 44 24 52 24 100 0z"/>
<path d="M5 350 c-8 -13 3 -30 20 -30 8 0 29 -9 47 -20 44 -26 78 -26 78 0 0
11 -7 20 -15 20 -8 0 -32 9 -52 20 -41 22 -68 25 -78 10z"/>
</g>
</svg>
