<?xml version="1.0" standalone="no"?>
<!DOCTYPE svg PUBLIC "-//W3C//DTD SVG 20010904//EN"
 "http://www.w3.org/TR/2001/REC-SVG-20010904/DTD/svg10.dtd">
<svg version="1.0" xmlns="http://www.w3.org/2000/svg"
 width="96.000000pt" height="96.000000pt" viewBox="0 0 96.000000 96.000000"
 preserveAspectRatio="xMidYMid meet">

<g transform="translate(0.000000,96.000000) scale(0.100000,-0.100000)"
fill="#000000" stroke="none">
<path d="M370 870 c0 -38 4 -50 15 -50 11 0 15 12 15 50 0 38 -4 50 -15 50
-11 0 -15 -12 -15 -50z"/>
<path d="M187 864 c-10 -10 35 -84 50 -84 18 0 16 26 -4 61 -17 28 -33 36 -46
23z"/>
<path d="M538 839 c-22 -37 -23 -59 -3 -59 16 0 58 74 48 84 -13 13 -29 5 -45
-25z"/>
<path d="M57 733 c-13 -12 -7 -21 28 -43 40 -25 76 -21 54 6 -11 13 -61 44
-72 44 -2 0 -7 -3 -10 -7z"/>
<path d="M292 719 c-67 -34 -112 -108 -112 -186 0 -33 21 -95 40 -118 17 -20
100 2 135 35 37 35 79 52 121 48 22 -1 40 6 62 24 17 14 37 28 44 30 18 6 -6
79 -39 119 -57 67 -168 89 -251 48z"/>
<path d="M663 719 c-33 -21 -44 -49 -20 -49 22 0 77 39 77 55 0 21 -19 19 -57
-6z"/>
<path d="M13 553 c-7 -2 -13 -11 -13 -19 0 -17 95 -20 106 -3 13 22 -54 38
-93 22z"/>
<path d="M602 519 c-24 -12 -50 -32 -58 -44 -12 -19 -21 -21 -67 -17 -46 4
-57 1 -84 -22 -18 -15 -35 -35 -38 -45 -4 -13 -12 -17 -25 -14 -64 17 -161
-47 -180 -118 -19 -69 17 -151 80 -184 39 -20 601 -22 640 -2 39 20 70 74 70
123 0 36 -6 50 -38 84 -22 22 -46 40 -54 40 -12 0 -17 14 -20 58 -6 92 -54
144 -144 157 -29 4 -50 0 -82 -16z"/>
<path d="M88 388 c-40 -23 -50 -48 -20 -48 25 0 84 39 80 52 -7 20 -21 19 -60
-4z"/>
</g>
</svg>
