<?xml version="1.0" standalone="no"?>
<!DOCTYPE svg PUBLIC "-//W3C//DTD SVG 20010904//EN"
 "http://www.w3.org/TR/2001/REC-SVG-20010904/DTD/svg10.dtd">
<svg version="1.0" xmlns="http://www.w3.org/2000/svg"
 width="64.000000pt" height="64.000000pt" viewBox="0 0 64.000000 64.000000"
 preserveAspectRatio="xMidYMid meet">

<g transform="translate(0.000000,64.000000) scale(0.100000,-0.100000)"
fill="#000000" stroke="none">
<path d="M218 579 c-21 -10 -42 -28 -48 -39 -6 -11 -18 -20 -26 -20 -28 0 -74
-30 -89 -60 -19 -37 -19 -63 0 -100 28 -55 52 -60 288 -60 210 0 214 0 235 23
28 30 28 68 -1 95 -13 12 -26 22 -29 22 -4 0 -20 14 -36 30 -18 17 -41 30 -56
30 -17 0 -30 9 -42 29 -22 37 -82 71 -125 71 -19 -1 -51 -10 -71 -21z"/>
<path d="M277 242 c-18 -20 -22 -42 -8 -42 5 0 11 9 14 21 8 31 52 22 52 -11
0 -24 -3 -25 -67 -28 -86 -4 -89 -22 -4 -22 68 0 96 14 96 49 0 21 -30 51 -52
51 -8 0 -22 -8 -31 -18z"/>
<path d="M402 237 c-22 -23 -30 -57 -13 -57 5 0 12 11 15 25 13 50 96 36 96
-16 0 -44 -22 -49 -206 -49 -109 0 -174 -4 -174 -10 0 -6 66 -10 179 -10 l180
0 20 26 c12 15 21 34 21 44 0 10 -9 29 -21 44 -26 33 -68 34 -97 3z"/>
<path d="M120 170 c0 -5 14 -10 30 -10 17 0 30 5 30 10 0 6 -13 10 -30 10 -16
0 -30 -4 -30 -10z"/>
<path d="M120 90 c0 -6 53 -10 140 -10 78 0 140 -4 140 -9 0 -5 -6 -11 -12
-14 -7 -2 -10 -7 -7 -11 9 -10 39 4 39 18 0 30 -25 36 -162 36 -85 0 -138 -4
-138 -10z"/>
</g>
</svg>
